<svg width="24" height="24" fill="none" xmlns="http://www.w3.org/2000/svg"><path d="M4.68 3.026a2.581 2.581 0 0 0-.789.323c-.42.277-.745.754-.847 1.243-.062.3-.062 14.516 0 14.816.157.75.798 1.391 1.548 1.548.3.062 14.516.062 14.816 0a2.062 2.062 0 0 0 1.548-1.548c.062-.3.062-14.516 0-14.816-.138-.661-.615-1.205-1.296-1.476l-.24-.096-7.32-.005a911.69 911.69 0 0 0-7.42.011m13.66 2.04c.117.04.263.135.365.237.316.316.295-.165.295 6.697s.021 6.381-.295 6.697c-.327.327.205.303-6.705.303-6.903 0-6.379.023-6.701-.299C4.977 18.379 5 18.903 5 12c0-6.904-.024-6.379.3-6.702.314-.314-.209-.291 6.683-.295 5.637-.003 6.179.003 6.357.063" fill="#323232" fill-rule="evenodd"/></svg>