<svg width="24" height="24" fill="none" xmlns="http://www.w3.org/2000/svg"><path d="M11.16 1.025c-2.879.27-5.306 1.451-7.248 3.526C2.097 6.492 1 9.269 1.001 11.92a11.055 11.055 0 0 0 2.423 6.96c.336.425 1.246 1.333 1.696 1.694a11.062 11.062 0 0 0 8.72 2.262c2.18-.371 4.153-1.37 5.782-2.928 1.822-1.741 2.956-4.016 3.304-6.628.03-.225.052-.828.053-1.48.001-1.062-.002-1.106-.088-1.267-.106-.197-.269-.322-.52-.398-.51-.153-1.063.022-1.26.398-.081.154-.089.246-.115 1.207-.036 1.318-.112 1.901-.361 2.76a9.527 9.527 0 0 1-1.631 3.14c-.32.398-.94 1.013-1.379 1.367-3.503 2.827-8.599 2.605-11.829-.516-1.533-1.482-2.441-3.273-2.72-5.371-.065-.487-.066-1.749-.002-2.24a9.015 9.015 0 0 1 6.705-7.598c.784-.204 1.266-.26 2.221-.26 1.356.001 2.093.146 3.531.696.648.248.938.223 1.227-.105.258-.294.402-.757.324-1.047-.091-.336-.305-.497-1.069-.8-1.231-.49-2.405-.719-3.813-.743a18.871 18.871 0 0 0-1.04.002m10.46 2.021c-.101.051-1.915 1.836-4.889 4.807l-4.729 4.724-1.231-1.221c-.87-.863-1.285-1.247-1.414-1.309-.359-.171-.702-.086-1.058.264-.344.338-.434.71-.257 1.064.061.123.616.703 1.793 1.877 1.648 1.643 1.713 1.702 1.935 1.771.22.069.24.069.46.001.227-.07.289-.13 5.436-5.277 3.745-3.746 5.231-5.257 5.295-5.384.175-.353.086-.718-.26-1.064-.34-.34-.733-.432-1.081-.253" fill-rule="evenodd" fill="#000"/></svg>