<svg width="24" height="24" fill="none" xmlns="http://www.w3.org/2000/svg"><path d="M18.611 1.204a3.846 3.846 0 0 0-1.747.623c-.428.279-14.148 13.991-14.259 14.251-.094.22-1.556 5.564-1.59 5.814-.051.37.179.861.484 1.033.296.168.393.148 3.485-.698 1.564-.429 2.914-.816 3-.86.095-.05 2.846-2.775 7.08-7.014 7.276-7.286 7.127-7.129 7.422-7.78.229-.505.324-.965.324-1.573 0-.455-.017-.603-.105-.94-.486-1.848-2.185-3.034-4.094-2.856m.888 2.044c.453.114.936.52 1.141.96a1.89 1.89 0 0 1-.005 1.592c-.116.241-.608.744-6.894 7.035l-6.77 6.774-1.75.478c-.962.263-1.757.47-1.766.461-.009-.009.199-.806.462-1.771l.479-1.753 6.772-6.77c6.391-6.389 6.787-6.777 7.035-6.893a1.908 1.908 0 0 1 1.296-.113" fill-rule="evenodd" fill="#000"/></svg>