<svg width="24" height="24" fill="none" xmlns="http://www.w3.org/2000/svg"><path d="M14.671.04a.768.768 0 0 0-.499.432c-.095.195-.112.277-.112.568 0 .299.013.363.11.527.157.268.383.365 1.13.489.946.157 1.651.388 2.443.803a7.88 7.88 0 0 1 3.399 3.401c.412.785.644 1.491.803 2.44.114.684.182.868.386 1.047.333.292 1.102.25 1.42-.078.265-.274.299-.533.172-1.309a9.992 9.992 0 0 0-2.801-5.482C19.614 1.373 17.749.426 15.611.079c-.516-.083-.76-.094-.94-.039M3.62 1.042A3.008 3.008 0 0 0 1.438 2.66c-.339.686-.386 1.205-.216 2.38.396 2.74 1.275 5.253 2.651 7.58 1.643 2.779 3.795 5.078 6.343 6.778 2.191 1.463 4.282 2.405 6.644 2.997 1.202.301 2.569.525 3.202.525 1.086 0 2.154-.687 2.636-1.695.284-.594.282-.576.282-2.845 0-2.027-.001-2.042-.094-2.34-.3-.961-1.011-1.702-1.933-2.014a6.37 6.37 0 0 0-.68-.146c-.954-.159-1.253-.234-2.273-.569-.575-.189-.655-.205-1.103-.222-.402-.015-.54-.004-.819.067-.669.169-1.005.375-1.685 1.035l-.469.456-.192-.13c-.958-.649-1.56-1.143-2.333-1.916a13.484 13.484 0 0 1-1.679-1.997l-.369-.526.457-.47c.769-.793 1.004-1.232 1.107-2.068.058-.472.002-.828-.254-1.618a12.696 12.696 0 0 1-.518-2.087 7.908 7.908 0 0 0-.166-.78A3.002 3.002 0 0 0 8.46 1.318c-.601-.296-.573-.293-2.72-.302-1.056-.005-2.01.007-2.12.026m3.789 2c.204.056.472.269.579.459.048.086.117.328.153.538.17.998.337 1.668.638 2.559.166.491.181.769.058 1.042-.056.125-.312.413-.835.94-.438.442-.788.83-.837.928-.117.232-.112.532.012.799.113.241.605 1.035.905 1.458a17.337 17.337 0 0 0 4.438 4.344c.965.645 1.287.81 1.58.81.351-.001.493-.101 1.357-.953.866-.852.916-.886 1.33-.886.12 0 .36.055.615.141.877.297 1.549.466 2.45.616.293.049.535.114.638.171.197.109.41.375.468.583.026.091.042.784.042 1.792 0 1.808-.011 1.908-.239 2.183-.161.195-.485.354-.721.354-.102 0-.436-.035-.742-.078-3.584-.504-6.942-2.049-9.798-4.507-2.736-2.354-4.906-5.829-5.84-9.352-.291-1.098-.568-2.742-.525-3.117a.978.978 0 0 1 .674-.807c.216-.068 3.365-.082 3.6-.017m7.168 1.015c-.189.082-.399.356-.472.617-.124.443-.072.763.165 1.012.154.162.311.231.8.351a4.01 4.01 0 0 1 2.893 2.893c.045.181.109.404.143.496.074.198.302.426.49.489.472.157 1.185-.108 1.349-.501.129-.309.012-.994-.305-1.783a6.007 6.007 0 0 0-2.798-3.047c-.929-.473-1.881-.695-2.265-.527" fill-rule="evenodd" fill="#000"/></svg>