<svg width="24" height="24" fill="none" xmlns="http://www.w3.org/2000/svg"><path d="M.84 2.026c-.416.066-.658.241-.765.554-.081.236-.082 13.548-.001 13.826a.856.856 0 0 0 .486.514c.089.033.443.058.969.07l.828.019-.054.106c-.202.391-.318 1.166-.259 1.745a3.465 3.465 0 0 0 3.096 3.096 3.468 3.468 0 0 0 3.816-3.096c.059-.582-.056-1.354-.261-1.75L8.638 17h6.724l-.057.11c-.108.209-.225.671-.261 1.03a3.468 3.468 0 0 0 3.096 3.816 3.468 3.468 0 0 0 3.816-3.096c.059-.579-.056-1.354-.259-1.745l-.054-.106.828-.017c.672-.014.859-.031.989-.087a.79.79 0 0 0 .449-.462c.065-.169.071-.398.071-2.903 0-2.191-.011-2.751-.055-2.88-.075-.221-3.253-3.425-3.525-3.554-.173-.083-.241-.086-1.788-.098l-1.608-.013-.012-2.147c-.011-1.966-.018-2.162-.084-2.307a.786.786 0 0 0-.428-.436l-.18-.085-7.68-.005c-4.224-.003-7.725.002-7.78.011M15 9.5V15H2V4h13v5.5m5.81.69L22 11.379V15h-5V9h2.62l1.19 1.19M6.129 17.129c.292.135.605.447.743.742.095.201.108.278.108.629s-.013.428-.108.629a1.7 1.7 0 0 1-.743.743c-.201.095-.278.108-.629.108s-.428-.013-.629-.108a1.49 1.49 0 0 1-.863-1.297c-.036-.669.312-1.215.941-1.48.323-.137.843-.121 1.18.034m13 0c.292.135.605.447.743.742.095.201.108.278.108.629s-.013.428-.108.629a1.7 1.7 0 0 1-.743.743c-.201.095-.278.108-.629.108s-.428-.013-.629-.108a1.49 1.49 0 0 1-.863-1.297c-.036-.669.312-1.215.941-1.48.323-.137.843-.121 1.18.034" fill-rule="evenodd" fill="#000"/></svg>