<svg width="24" height="24" fill="none" xmlns="http://www.w3.org/2000/svg"><path d="M7.891 2.044c-1.881.219-3.5 1.543-4.132 3.378-.338.983-.328 2.244.027 3.227.54 1.497 1.673 2.607 3.158 3.093 3.235 1.06 6.542-1.338 6.542-4.742a4.984 4.984 0 0 0-5.595-4.956m1.38 2.051c1.06.292 1.933 1.197 2.15 2.228a3.958 3.958 0 0 1-.006 1.369 2.987 2.987 0 0 1-2.304 2.244 2.986 2.986 0 0 1-3.057-1.202C5.684 8.216 5.52 7.683 5.52 7c0-.814.246-1.457.779-2.035.371-.403 1.023-.786 1.501-.881l.3-.062c.152-.035.961.015 1.171.073M22.62 8.046c-.095.049-.867.788-1.889 1.807l-1.73 1.724-.73-.723c-.415-.41-.804-.76-.899-.809-.351-.177-.732-.087-1.073.254-.347.347-.436.711-.259 1.064.122.244 2.353 2.475 2.597 2.597a.8.8 0 0 0 .726 0c.204-.102 4.322-4.182 4.519-4.477.105-.157.118-.21.118-.483 0-.275-.013-.325-.123-.492a1.489 1.489 0 0 0-.545-.483c-.179-.091-.514-.081-.712.021M4.4 14.044c-1.622.182-3.137 1.249-3.867 2.724A6.064 6.064 0 0 0 .098 18c-.058.247-.073.557-.087 1.744-.011.957-.003 1.499.026 1.604.107.4.393.613.859.643.485.031.803-.109.984-.433l.1-.178.023-1.46c.023-1.4.028-1.473.122-1.781a3.07 3.07 0 0 1 2.053-2.027l.322-.092h8l.322.092a3.073 3.073 0 0 1 2.054 2.027c.094.308.099.379.121 1.781l.023 1.46.1.178c.167.298.452.442.88.442s.713-.144.88-.442l.1-.178v-1.5c0-1.301-.01-1.545-.073-1.839-.469-2.178-2.195-3.763-4.355-3.999-.466-.05-7.697-.049-8.152.002" fill-rule="evenodd" fill="#000"/></svg>