<svg width="24" height="24" fill="#000" xmlns="http://www.w3.org/2000/svg"><path d="M11.12 2.039c-1.804.181-3.413.768-4.84 1.767-3.542 2.48-5.102 6.953-3.858 11.059a9.762 9.762 0 0 0 2.517 4.196 9.792 9.792 0 0 0 3.333 2.217c3.362 1.332 7.041.802 9.928-1.433.437-.338 1.307-1.208 1.645-1.645C21.255 16.379 22 14.234 22 12c0-4.568-3.158-8.613-7.57-9.697-.984-.241-2.402-.355-3.31-.264m1.62 2.002A7.98 7.98 0 0 1 19.182 8.5a7.965 7.965 0 0 1-1.417 9.03A7.977 7.977 0 0 1 12 19.999c-3.765 0-7.052-2.668-7.823-6.351a7.995 7.995 0 0 1 4.324-8.831 7.919 7.919 0 0 1 4.239-.776M7.664 8.063a1.005 1.005 0 0 0-.533.448L7.02 8.7l-.011 3.212c-.007 2.153.003 3.264.031 3.369.061.225.272.48.491.593a.987.987 0 0 0 1.169-.172c.266-.266.3-.42.3-1.369v-.813h2v.81c0 .445.019.877.042.959.061.22.273.473.489.585a.987.987 0 0 0 1.169-.172c.266-.266.3-.42.3-1.367v-.811l1.63-.012c1.594-.012 1.634-.014 1.795-.1.196-.105.391-.292.486-.466.062-.114.07-.322.08-2.101.011-1.758.005-1.998-.055-2.177a1.008 1.008 0 0 0-1.019-.659c-.395.038-.776.344-.875.702-.025.089-.042.686-.042 1.479v1.33h-2v-1.333c0-1.524-.012-1.601-.3-1.889a.987.987 0 0 0-1.169-.172 1.065 1.065 0 0 0-.489.585C11.017 8.8 11 9.397 11 10.19v1.33H9v-1.333c0-1.523-.012-1.602-.299-1.888a.996.996 0 0 0-1.037-.236"/></svg>