<svg width="24" height="24" fill="#000" xmlns="http://www.w3.org/2000/svg"><path d="M15.82 1.078a6.064 6.064 0 0 0-1.279.35c-1.946.762-3.354 2.28-3.985 4.297l-.133.422a4.808 4.808 0 0 1-.372-.088 4.761 4.761 0 0 0-1.67-.137c-2.761.289-4.854 2.348-5.382 5.292-.485 2.71.341 6.155 2.104 8.773 1.235 1.834 2.17 2.661 3.322 2.937.689.165 1.508.041 2.486-.378.617-.263.967-.346 1.457-.345.484.001.817.074 1.321.292.805.347 1.299.463 1.971.465 1.413.004 2.504-.787 3.855-2.798.675-1.003 1.086-1.809 1.439-2.813.318-.905.192-1.26-.596-1.672-.712-.372-1.207-.866-1.538-1.533-.263-.532-.347-.896-.347-1.502 0-.602.082-.964.342-1.5a3.348 3.348 0 0 1 1.204-1.393c.437-.297.579-.525.579-.927 0-.302-.077-.474-.385-.86a5.629 5.629 0 0 0-3.382-2.025 5.567 5.567 0 0 1-.382-.075c-.006-.005.069-.15.165-.324a6.697 6.697 0 0 0 .724-2.149c.082-.555.082-1.425-.001-1.703-.116-.392-.533-.689-.954-.681-.09.002-.343.036-.563.075m-.524 2.352c-.077.426-.435 1.2-.78 1.69-.449.637-1.167 1.214-1.791 1.441-.185.067-.343.115-.351.106-.009-.009.031-.165.088-.347.402-1.27 1.207-2.227 2.397-2.849.448-.234.473-.236.437-.041m1.115 4.47a3.754 3.754 0 0 1 1.56.651l.19.137-.299.318c-1.558 1.656-1.859 4.182-.742 6.235.333.612.938 1.299 1.493 1.696.147.104.267.206.267.225 0 .079-.404.887-.638 1.278-.678 1.129-1.491 2.104-1.973 2.365-.241.131-.263.135-.689.133-.475-.003-.534-.019-1.287-.355a5.891 5.891 0 0 0-.72-.252c-.359-.097-.46-.106-1.173-.108-.719-.002-.813.006-1.2.104a6.382 6.382 0 0 0-.72.233c-.744.31-.876.357-1.133.402-.15.026-.347.035-.438.021-.517-.083-1.105-.632-1.944-1.816a11.774 11.774 0 0 1-1.961-4.713c-.375-2.088-.034-3.922.956-5.145.462-.571 1.226-1.074 1.927-1.268.871-.242 1.497-.178 2.576.262.595.243 1.092.394 1.426.435.449.054 1.073-.093 1.917-.452.952-.405 1.788-.529 2.605-.386"/></svg>