<svg width="24" height="24" fill="#000" xmlns="http://www.w3.org/2000/svg"><path d="M11.675 6.053c-.079.03-.196.092-.26.138-.063.046-1.278 1.25-2.7 2.676-2.346 2.354-2.591 2.611-2.65 2.79a.987.987 0 0 0 0 .686c.059.179.307.44 2.69 2.831C11.61 18.039 11.564 18 12 17.999a.996.996 0 0 0 .999-.999c-.001-.414-.023-.441-1.87-2.29L9.42 13h3.863c4.346 0 4.103.016 4.418-.299a.984.984 0 0 0 0-1.402c-.315-.315-.072-.299-4.417-.299H9.421l1.705-1.71c.938-.94 1.736-1.771 1.773-1.845.09-.178.12-.506.066-.709a1.072 1.072 0 0 0-.465-.598c-.221-.129-.601-.169-.825-.085"/></svg>