<svg width="24" height="24" fill="#000" xmlns="http://www.w3.org/2000/svg"><path d="M11.665 6.056c-.54.201-.813.832-.582 1.344.061.135.505.605 1.788 1.89L14.579 11h-3.863c-4.345 0-4.102-.016-4.417.299a.984.984 0 0 0 0 1.402c.315.315.072.299 4.418.299h3.863l-1.709 1.71c-1.847 1.849-1.869 1.876-1.87 2.29a.996.996 0 0 0 .999.999c.436.001.39.04 3.245-2.825 2.383-2.391 2.631-2.652 2.69-2.831a.987.987 0 0 0 0-.686c-.059-.179-.305-.438-2.67-2.81-1.433-1.437-2.682-2.658-2.777-2.715a1.115 1.115 0 0 0-.823-.076"/></svg>