<svg width="21" height="20" fill="none" xmlns="http://www.w3.org/2000/svg"><path d="M12.58 1.727c-.169.077-.37.272-.44.425-.059.131-.064.288-.064 2.319l-.001 2.179H6.666l-.504-1.356c-.277-.746-.544-1.433-.593-1.526a.845.845 0 0 0-.534-.409c-.103-.025-.526-.035-1.256-.028-1.051.011-1.108.015-1.241.087-.301.162-.453.413-.453.747s.152.585.453.747c.128.069.205.077.941.093l.801.018.727 1.956c.399 1.076.736 2.003.747 2.059.034.172.322.736.542 1.063.89 1.324 2.26 2.155 3.888 2.357.392.049 3.299.048 3.737-.001a5.436 5.436 0 0 0 4.524-3.663c.215-.648.259-.936.259-1.706 0-.792-.051-1.116-.279-1.77-.627-1.803-2.118-3.116-4.013-3.537-.427-.095-1.663-.131-1.832-.054m1.673 1.705c1.258.302 2.302 1.305 2.666 2.561.049.168.099.385.112.482l.023.175H13.72V3.329l.131.019c.072.011.253.049.402.084m2.563 4.977c-.052.171-.345.699-.504.908-.209.276-.658.705-.912.872-.45.297-.992.509-1.505.59-.185.029-.771.038-1.995.028l-1.732-.014-.326-.094A3.76 3.76 0 0 1 7.83 9.328c-.208-.28-.45-.722-.493-.902l-.023-.096h9.526l-.024.079m-9.53 4.997a2.54 2.54 0 0 0-1.812 1.819c-.089.336-.082.889.015 1.235.233.831.83 1.466 1.612 1.718.381.123.43.131.804.13.691-.002 1.26-.24 1.756-.737.516-.516.761-1.143.725-1.855-.05-.973-.594-1.774-1.474-2.171a2.632 2.632 0 0 0-1.626-.139m8.332 0a2.526 2.526 0 0 0-1.816 1.819c-.081.305-.081.886 0 1.19.195.733.68 1.33 1.336 1.644.376.181.68.25 1.094.249a2.373 2.373 0 0 0 1.741-.72c.319-.319.503-.612.637-1.015.083-.248.093-.335.093-.753s-.01-.505-.093-.753a2.526 2.526 0 0 0-1.834-1.676 2.837 2.837 0 0 0-1.158.015M8.134 15.03a.768.768 0 0 1 .489.404c.089.162.098.209.087.436-.016.307-.122.494-.369.65-.521.331-1.186-.002-1.26-.632-.046-.385.241-.779.637-.875a.636.636 0 0 1 .416.017m8.278-.012c.242.051.43.198.541.421.318.638-.219 1.343-.906 1.189-.165-.037-.234-.077-.385-.225-.191-.186-.261-.342-.262-.579a.86.86 0 0 1 .648-.811c.151-.037.17-.037.364.005" fill="#000" fill-rule="evenodd"/></svg>