<svg width="21" height="20" fill="none" xmlns="http://www.w3.org/2000/svg"><path d="M11.222 1.742c-.158.087-.431.452-3.563 4.759-1.866 2.565-3.418 4.723-3.448 4.796-.162.385.034.893.427 1.105.138.075.162.076 2.317.085l2.178.01.01 2.615.01 2.616.077.144a.8.8 0 0 0 .741.432.883.883 0 0 0 .552-.198c.091-.076 6.706-9.166 6.834-9.391.174-.304.103-.741-.16-.985-.252-.234-.117-.221-2.541-.232l-2.196-.01V4.912c0-1.854-.011-2.614-.041-2.712a.923.923 0 0 0-.43-.489.933.933 0 0 0-.767.031m-.32 6.968a.845.845 0 0 0 .421.396c.08.036.515.051 1.862.064l1.757.018-2.055 2.843-2.054 2.844-.018-1.706c-.019-1.855-.015-1.816-.223-2.063a.965.965 0 0 0-.259-.192c-.165-.081-.171-.082-1.921-.099l-1.755-.017L8.71 7.957l2.053-2.841.017 1.703.018 1.704.104.187" fill="#000" fill-rule="evenodd"/></svg>