<svg width="20" height="20" fill="none" xmlns="http://www.w3.org/2000/svg"><path d="M3.886 1.719a.843.843 0 0 0-.444.374l-.092.157-.009 7.208-.008 7.209h-.479c-.343 0-.52.014-.623.05a.825.825 0 0 0-.316 1.366c.273.273-.471.25 8.085.25 8.554 0 7.812.023 8.084-.249a.82.82 0 0 0 0-1.168c-.206-.206-.368-.249-.94-.249h-.477V9.523c0-8.019.022-7.336-.249-7.607-.271-.27.27-.25-6.432-.247-5.094.002-5.988.009-6.1.05M15 10v6.667h-2.5v-2.144c0-2.422.007-2.351-.25-2.608-.254-.254-.226-.251-2.304-.241l-1.831.009-.166.085a.886.886 0 0 0-.414.491c-.022.08-.035.893-.035 2.266v2.142H5V3.333h10V10M7.22 5.052a.828.828 0 0 0-.305 1.365c.212.212.363.25 1.002.25.638 0 .789-.038 1.001-.249a.82.82 0 0 0 0-1.169c-.214-.213-.362-.249-1.016-.247-.391.002-.59.017-.682.05m4.166 0a.828.828 0 0 0-.304 1.365c.212.212.363.25 1.001.25.638 0 .79-.038 1.001-.249a.82.82 0 0 0 0-1.169c-.213-.213-.361-.249-1.015-.247-.391.002-.59.017-.683.05M7.22 8.386a.828.828 0 0 0-.305 1.364c.212.212.363.25 1.002.25.638 0 .789-.038 1.001-.249a.82.82 0 0 0 0-1.169c-.214-.213-.362-.249-1.016-.246-.391.001-.59.016-.682.05m4.166 0a.827.827 0 0 0-.304 1.364c.212.212.363.25 1.001.25.638 0 .79-.038 1.001-.249a.82.82 0 0 0 0-1.169c-.213-.213-.361-.249-1.015-.246-.391.001-.59.016-.683.05M10.833 15v1.667H9.167v-3.334h1.666V15" fill="#000" fill-rule="evenodd"/></svg>