<svg width="24" height="24" fill="#000" xmlns="http://www.w3.org/2000/svg"><path d="M16.768.067c-.182.09-.258.259-.28.62l-.018.307-.192.026c-.467.064-.916.406-1.134.86-.11.231-.124.3-.124.62 0 .321.014.388.125.62.159.332.406.578.735.736.256.122.271.124 1.02.144.827.022.891.038 1.022.253a.45.45 0 0 1 0 .495c-.148.243-.2.252-1.43.252-1.032 0-1.121.006-1.24.078a.478.478 0 0 0-.174.67c.132.217.253.252.855.252h.537l.018.31c.022.368.099.536.286.625.174.082.278.082.452 0 .187-.089.264-.257.286-.62l.018-.306.185-.025c.458-.06.942-.431 1.153-.884.097-.207.112-.29.112-.6 0-.311-.015-.394-.113-.604a1.687 1.687 0 0 0-.767-.763c-.229-.106-.276-.112-1-.132-.826-.023-.891-.039-1.022-.254a.477.477 0 0 1 .174-.669C16.371 2.006 16.46 2 17.5 2s1.129-.006 1.248-.078a.478.478 0 0 0 .174-.67C18.79 1.035 18.669 1 18.067 1h-.537l-.018-.31c-.022-.368-.099-.536-.286-.625-.173-.081-.29-.081-.458.002m-8.72 3.016A3.015 3.015 0 0 0 5.789 4.64c-.076.143-.458 1.21-.849 2.371-.672 1.997-.716 2.111-.815 2.135a2.991 2.991 0 0 0-.35.135c-.793.355-1.387 1.041-1.661 1.919l-.094.3v5.04l.127.362c.182.521.377.83.771 1.222.285.284.408.374.711.52l.366.176.002.663c.003.784.048.964.302 1.218a.984.984 0 0 0 1.402 0c.247-.247.299-.442.299-1.128V19h12v.573c0 .686.052.881.299 1.128a.984.984 0 0 0 1.402 0c.254-.254.299-.434.302-1.218l.002-.663.368-.177c.311-.15.423-.232.729-.54a2.9 2.9 0 0 0 .784-1.303l.094-.3v-5l-.094-.3c-.274-.878-.868-1.564-1.661-1.919a2.923 2.923 0 0 0-.352-.135c-.1-.024-.127-.086-.399-.904l-.291-.878-.202.115c-.409.233-.927.401-1.548.5l-.147.023.131.389c.071.214.142.439.157.499l.028.11h-5.606c-4.467 0-5.601-.01-5.586-.05.011-.028.265-.8.565-1.718.602-1.837.643-1.924 1.004-2.11l.199-.102 2.475-.011 2.476-.011-.025-.089c-.082-.292-.118-.929-.074-1.32.025-.226.058-.442.072-.48.025-.065-.118-.069-2.388-.064-1.328.003-2.528.02-2.666.038m11.292 7.983c.253.087.507.341.594.594.058.171.066.448.066 2.34 0 2.427.003 2.399-.299 2.701-.324.324.322.299-7.701.299s-7.377.025-7.701-.299C3.997 16.399 4 16.427 4 14c0-2.428-.003-2.399.3-2.702.316-.316-.325-.291 7.683-.295 6.567-.003 7.179.003 7.357.063M6.667 13.065c-.529.163-.815.846-.563 1.346.314.623 1.116.771 1.593.294a.984.984 0 0 0 0-1.41c-.269-.27-.635-.351-1.03-.23m3.976.004c-.352.124-.643.545-.643.931 0 .396.291.808.66.934.163.055.378.066 1.34.066 1.316 0 1.421-.018 1.701-.299a.984.984 0 0 0 0-1.402c-.282-.282-.383-.299-1.718-.296-.945.003-1.196.015-1.34.066m6.024-.004c-.529.163-.815.846-.563 1.346.314.623 1.116.771 1.593.294a.984.984 0 0 0 0-1.41c-.269-.27-.635-.351-1.03-.23"/></svg>