<svg width="24" height="24" fill="none" xmlns="http://www.w3.org/2000/svg"><path d="M7.96 4.582c-.336.072-.915.361-1.219.606-.44.356-.811.908-.964 1.432-.038.132-.189.834-.336 1.56L5.175 9.5l-.38.025c-1.267.083-2.26.875-2.679 2.135-.091.274-.093.319-.107 2.138-.016 2.079-.018 2.058.267 2.375.243.27.412.321 1.109.34l.605.015.027.266a3.005 3.005 0 0 0 3.308 2.681 3.002 3.002 0 0 0 2.66-2.703l.026-.252h3.978l.027.27c.167 1.656 1.662 2.869 3.309 2.685a3.003 3.003 0 0 0 2.66-2.699l.025-.248.605-.016c.671-.018.823-.059 1.06-.284.074-.07.177-.218.23-.328l.094-.2.001-1.732c0-1.863-.018-2.079-.219-2.579a3.035 3.035 0 0 0-1.61-1.644 2.84 2.84 0 0 0-1.137-.224l-.345-.001-.669-1.67c-.367-.919-.733-1.778-.812-1.91-.194-.326-.688-.811-1.028-1.011a4.208 4.208 0 0 0-.6-.277l-.32-.112-3.52-.007c-2.894-.006-3.566.002-3.78.049M11 8.02v1.5H9.12c-1.477 0-1.88-.011-1.88-.05 0-.163.461-2.314.522-2.434.085-.166.317-.382.495-.459.094-.041.429-.054 1.433-.055L11 6.52v1.5m4.014-1.445c.184.077.417.29.505.463.137.269.992 2.438.97 2.46-.012.012-.802.022-1.756.022H13v-3h.941c.708 0 .974.014 1.073.055m4.36 5c.188.078.416.291.518.481.084.156.089.22.1 1.314l.013 1.15h-.763l-.255-.23a2.972 2.972 0 0 0-3.974 0l-.255.23H9.242l-.255-.23a2.966 2.966 0 0 0-3.974 0l-.255.23h-.763l.013-1.15c.011-1.094.016-1.158.1-1.314.099-.186.327-.4.509-.479.186-.081 14.564-.083 14.757-.002m-12 4c.189.079.417.291.517.481.12.228.121.659.001.884a.986.986 0 0 1-.893.55.987.987 0 0 1-.891-.55c-.12-.225-.119-.656.001-.884.098-.185.325-.4.508-.479.161-.071.591-.072.757-.002m10 0c.189.079.417.291.517.481.12.228.121.659.001.884a.986.986 0 0 1-.893.55.987.987 0 0 1-.891-.55c-.12-.225-.119-.656.001-.884.098-.185.325-.4.508-.479.161-.071.591-.072.757-.002" fill="#000" fill-rule="evenodd"/></svg>