<svg width="24" height="24" fill="#000" xmlns="http://www.w3.org/2000/svg"><path d="M6.643 1.069a1.118 1.118 0 0 0-.343.229c-.248.248-.3.443-.3 1.124v.569l-.77.02c-.498.013-.841.041-.97.079-.936.273-1.675.914-2.022 1.754C1.987 5.454 2 5.009 2 13c0 7.991-.013 7.546.238 8.156.154.372.344.653.648.958.435.434.929.7 1.535.825.439.091 14.73.091 15.159.001a3.005 3.005 0 0 0 2.36-2.36c.09-.429.09-14.72-.001-15.159a2.956 2.956 0 0 0-1.643-2.109c-.513-.247-.669-.278-1.526-.301l-.77-.02v-.569c0-.681-.052-.876-.299-1.123a.984.984 0 0 0-1.402 0c-.247.247-.299.442-.299 1.128V3H8v-.573c0-.686-.052-.881-.299-1.128a.998.998 0 0 0-1.058-.23M6 5.573c0 .686.052.881.299 1.128a.984.984 0 0 0 1.402 0C7.948 6.454 8 6.259 8 5.573V5h8v.573c0 .686.052.881.299 1.128a.984.984 0 0 0 1.402 0c.247-.247.299-.442.299-1.128V5h.573c.686 0 .881.052 1.128.299.293.292.299.339.299 2.128V9H4V7.427c0-1.79.006-1.835.3-2.129.246-.246.415-.291 1.11-.295L6 5v.573m14 10c0 5.141.019 4.81-.299 5.128-.324.324.322.299-7.701.299s-7.377.025-7.701-.299c-.318-.318-.299.013-.299-5.128V11h16v4.573M6.643 13.069C6.291 13.193 6 13.614 6 14c0 .242.119.521.299.701a.984.984 0 0 0 1.402 0c.753-.753-.048-1.989-1.058-1.632m5 0c-.352.124-.643.545-.643.931 0 .527.473 1 1 1 .242 0 .521-.119.701-.299.753-.753-.048-1.989-1.058-1.632m5 0c-.352.124-.643.545-.643.931 0 .527.473 1 1 1 .242 0 .521-.119.701-.299.753-.753-.048-1.989-1.058-1.632m-10 4C6.291 17.193 6 17.614 6 18c0 .242.119.521.299.701a.984.984 0 0 0 1.402 0c.753-.753-.048-1.989-1.058-1.632m5 0c-.352.124-.643.545-.643.931 0 .527.473 1 1 1 .242 0 .521-.119.701-.299.753-.753-.048-1.989-1.058-1.632m5 0c-.352.124-.643.545-.643.931 0 .527.473 1 1 1 .242 0 .521-.119.701-.299.753-.753-.048-1.989-1.058-1.632"/></svg>