<svg width="21" height="20" fill="none" xmlns="http://www.w3.org/2000/svg"><path d="M12.285 1.773a.65.65 0 0 0-.297.272l-.105.172-.01 2.712c-.011 3.082-.023 2.94.26 3.188.11.097.212.151.339.178.126.027.975.036 2.824.028l2.643-.01.174-.09a.663.663 0 0 0 .279-.259c.099-.16.106-.196.117-.58.019-.683-.148-1.482-.469-2.239-.502-1.184-1.465-2.21-2.64-2.815-.802-.413-1.531-.606-2.397-.638-.525-.018-.526-.018-.718.081M8.726 3.362a7.5 7.5 0 0 0-5.331 2.921C2.385 7.623 1.88 9.15 1.883 10.85a7.445 7.445 0 0 0 1.503 4.508 10 10 0 0 0 1.202 1.252c1.031.86 2.387 1.449 3.777 1.642.47.065 1.417.075 1.868.019 1.463-.182 2.757-.725 3.872-1.625 1.67-1.347 2.724-3.502 2.743-5.604.004-.424-.002-.467-.085-.63a.653.653 0 0 0-.26-.279l-.17-.105-3.055-.01-3.056-.009-.01-3.018-.009-3.018-.094-.199a.695.695 0 0 0-.519-.411c-.176-.041-.344-.041-.864-.001m5.379.217a4.06 4.06 0 0 1 2.571 2.702c.049.169.089.321.089.338 0 .018-.695.031-1.61.031h-1.61V3.427l.131.024c.072.013.265.071.429.128M8.54 8.064v2.988l.098.187a.68.68 0 0 0 .268.293l.171.106 3.022.009 3.022.01-.017.078a43.45 43.45 0 0 0-.074.375c-.221 1.139-.865 2.25-1.781 3.077-1.028.928-2.425 1.442-3.924 1.444-1.564.002-2.932-.571-4.059-1.701-.945-.947-1.452-1.966-1.646-3.31-.078-.54-.053-1.511.052-2.001.481-2.233 2.228-3.992 4.431-4.458.211-.045.396-.082.411-.084.014-.001.026 1.343.026 2.987" fill="#000" fill-rule="evenodd"/></svg>