<svg width="24" height="24" fill="#000" xmlns="http://www.w3.org/2000/svg"><path d="M10.12 2.041c-3.761.357-6.954 2.713-8.374 6.18A9.991 9.991 0 0 0 5.5 20.343c4.601 3.031 10.775 1.775 13.82-2.81 2.612-3.935 2.136-9.09-1.156-12.505-1.223-1.269-2.957-2.271-4.684-2.71-1.003-.254-2.392-.369-3.36-.277m2.098 2.058a8.004 8.004 0 0 1 5.022 2.907c.869 1.082 1.422 2.336 1.665 3.774.095.561.097 1.807.004 2.4-.261 1.661-.974 3.119-2.109 4.315a7.712 7.712 0 0 1-2.3 1.686c-1.082.524-2.036.763-3.22.807a7.829 7.829 0 0 1-3.751-.788 7.443 7.443 0 0 1-2.065-1.439c-1.273-1.225-2.059-2.73-2.37-4.541-.095-.551-.095-1.881 0-2.44.39-2.288 1.601-4.178 3.484-5.437.982-.657 2.245-1.133 3.342-1.259.209-.024.434-.052.5-.061.239-.034 1.409.016 1.798.076m-1.575 1.97a1.118 1.118 0 0 0-.343.229c-.309.309-.3.211-.3 3.239l.001 2.683.093.2c.055.117.166.259.27.344.097.079.774.489 1.506.911.936.54 1.386.778 1.52.803.513.096 1.01-.21 1.156-.712a1.001 1.001 0 0 0-.379-1.076c-.084-.061-.605-.37-1.159-.688L12 11.423V9.139c0-2.583.005-2.536-.299-2.84a.998.998 0 0 0-1.058-.23"/></svg>