<svg width="24" height="24" fill="#000" xmlns="http://www.w3.org/2000/svg"><path d="M4.503 5.042c-.804.136-1.614.678-2.052 1.373a3.516 3.516 0 0 0-.39 1.006c-.092.444-.092 9.714 0 10.158.125.606.391 1.1.825 1.535.435.434.929.7 1.535.825.439.091 14.73.091 15.159.001a3.005 3.005 0 0 0 2.36-2.36c.09-.427.089-9.723-.001-10.159a2.956 2.956 0 0 0-1.643-2.109c-.66-.318.116-.289-8.176-.297-4.081-.003-7.509.009-7.617.027M19.34 7.066c.253.087.507.341.594.594.049.145.066.339.066.767V9H4v-.573c0-.687.052-.881.3-1.129.316-.316-.325-.291 7.683-.295 6.567-.003 7.179.003 7.357.063m.66 7.007c0 3.463.012 3.317-.299 3.628-.324.324.322.299-7.701.299s-7.377.025-7.701-.299C3.988 17.39 4 17.536 4 14.073V11h16v3.073M6.643 13.069C6.291 13.193 6 13.614 6 14c0 .242.119.521.299.701.294.294.33.299 2.201.299s1.907-.005 2.201-.299a.984.984 0 0 0 0-1.402c-.295-.295-.328-.299-2.218-.296-1.398.003-1.691.013-1.84.066"/></svg>