<svg width="24" height="24" fill="#000" xmlns="http://www.w3.org/2000/svg"><path d="M6.38 3.7a3.049 3.049 0 0 0-2.287 2.18c-.069.246-.073.56-.073 5.76v5.5l.094.3c.17.545.385.902.784 1.302.306.306.421.391.742.548.74.362-.072.33 8.36.33 8.432 0 7.62.032 8.36-.33.321-.157.436-.242.742-.548.399-.4.614-.757.784-1.302l.094-.3v-5.5c0-5.2-.004-5.514-.073-5.76-.283-1.011-1.032-1.788-2.047-2.127l-.28-.093-7.48-.007c-6.149-.006-7.523.002-7.72.047M17.6 8.624c-3.236 3.241-3.162 3.175-3.6 3.175-.438 0-.364.066-3.6-3.175L7.42 5.64h13.16L17.6 8.624m-5.2 4.666c.227.142.605.304.92.395.102.029.395.052.68.053.414.001.551-.015.8-.093a3.46 3.46 0 0 0 .976-.473c.112-.08 1.559-1.497 3.215-3.149l3.01-3.002-.01 4.939-.011 4.94-.086.161a1.135 1.135 0 0 1-.473.473l-.161.086-7.174.01c-4.624.007-7.226-.003-7.321-.029a1.028 1.028 0 0 1-.625-.484l-.12-.217-.011-4.96-.01-4.96 3.09 3.086c1.997 1.994 3.169 3.135 3.311 3.224M.6 9.723a1.013 1.013 0 0 0-.494.457l-.086.16-.011 4.32c-.013 4.762-.015 4.702.235 5.487.498 1.565 1.774 2.819 3.327 3.269.731.212.439.204 7.289.204h6.4l.168-.09c.751-.401.758-1.398.012-1.795-.134-.072-.395-.076-6.54-.096-7.217-.024-6.528.009-7.26-.349-.321-.157-.436-.242-.742-.548-.301-.302-.392-.425-.55-.742-.35-.707-.324-.301-.347-5.26l-.021-4.4-.086-.16A1.007 1.007 0 0 0 1 9.642c-.136 0-.289.031-.4.081"/></svg>