<svg width="24" height="24" fill="#000" xmlns="http://www.w3.org/2000/svg"><path d="M11.665 2.496c-.379.141-.346.087-1.772 2.944l-1.34 2.692c-.008.018-1.328.227-2.934.464-2.006.296-2.963.453-3.059.502a1.043 1.043 0 0 0-.452.442c-.12.226-.119.616.003.863.067.138.614.691 2.204 2.229l2.115 2.046-.032.171-.519 2.947c-.464 2.635-.486 2.788-.441 2.991.099.444.51.775.957.771.124-.001.3-.033.391-.07.091-.037 1.29-.657 2.665-1.378 1.374-.72 2.521-1.31 2.549-1.31.028 0 1.175.589 2.549 1.31 1.374.721 2.574 1.341 2.665 1.378.192.078.422.089.635.03.373-.103.711-.539.711-.917 0-.105-.225-1.466-.5-3.026a425.61 425.61 0 0 1-.5-2.864c0-.015.958-.956 2.13-2.09 1.289-1.248 2.165-2.126 2.218-2.224a.892.892 0 0 0-.097-1.037c-.258-.301-.204-.289-3.366-.746-1.598-.23-2.928-.431-2.957-.446-.028-.016-.628-1.198-1.333-2.628-.704-1.43-1.325-2.658-1.379-2.729-.231-.303-.749-.45-1.111-.315m1.316 5.203c.986 2.004 1.055 2.12 1.366 2.276.15.075.319.104 2.668.443.987.142 1.801.265 1.809.272.007.008-.69.715-1.55 1.572-1.038 1.035-1.588 1.612-1.638 1.718-.044.094-.074.25-.075.38 0 .121.161 1.155.357 2.299.197 1.143.354 2.08.35 2.083-.004.002-.88-.46-1.946-1.028-1.342-.714-1.992-1.04-2.116-1.058a1.19 1.19 0 0 0-.37.017c-.11.026-1.004.477-2.078 1.049-1.037.552-1.895.995-1.906.984-.011-.011.144-.973.344-2.138.2-1.164.364-2.161.364-2.215 0-.055-.029-.187-.065-.296-.059-.176-.235-.367-1.648-1.785-1.006-1.011-1.561-1.596-1.524-1.607.031-.01 1.008-.155 2.171-.321 1.897-.272 2.134-.314 2.31-.41a1.1 1.1 0 0 0 .291-.231c.052-.068.496-.983.987-2.033.491-1.051.904-1.91.918-1.91.015 0 .456.873.981 1.939"/></svg>