<svg width="24" height="24" fill="#000" xmlns="http://www.w3.org/2000/svg"><path d="M11.665 2.496c-.379.141-.346.087-1.772 2.944l-1.34 2.692c-.008.017-1.328.226-2.934.463-2.002.297-2.963.454-3.059.503a1.043 1.043 0 0 0-.452.442c-.12.226-.119.616.003.863.067.138.614.691 2.204 2.229l2.115 2.046-.032.171-.519 2.947c-.464 2.635-.486 2.788-.441 2.991.099.444.51.775.957.771.124-.001.3-.033.391-.07.091-.037 1.29-.657 2.665-1.378 1.374-.72 2.521-1.31 2.549-1.31.028 0 1.175.589 2.549 1.31 1.374.721 2.574 1.341 2.665 1.378.192.078.422.089.635.03.373-.103.711-.539.711-.917 0-.105-.225-1.466-.5-3.026a425.61 425.61 0 0 1-.5-2.864c0-.015.958-.956 2.13-2.09 1.289-1.248 2.165-2.126 2.218-2.224a.892.892 0 0 0-.097-1.037c-.258-.301-.208-.29-3.325-.742-1.576-.228-2.907-.429-2.957-.447-.073-.024-.358-.571-1.374-2.631-.705-1.43-1.326-2.658-1.38-2.729-.23-.303-.748-.45-1.11-.315"/></svg>