<svg width="24" height="24" fill="#000" xmlns="http://www.w3.org/2000/svg"><path d="M5.033 2.041C3.67 2.271 2.68 3.32 2.521 4.704c-.055.488-.055 14.104 0 14.592.13 1.131.837 2.072 1.868 2.485.54.217.585.219 4.079.219l3.232-.001.2-.093a.994.994 0 0 0 .043-1.799c-.163-.087-.169-.087-3.443-.107l-3.28-.02-.164-.088a1.21 1.21 0 0 1-.481-.518c-.082-.196-.082-14.552 0-14.748a1.21 1.21 0 0 1 .481-.518c.163-.088.174-.088 2.794-.099l2.63-.011v1.471c.001 1.613.032 2.031.183 2.487a3.041 3.041 0 0 0 1.726 1.825c.494.198.726.219 2.468.219h1.62l.012 2.61c.01 2.413.016 2.622.083 2.77.16.356.555.619.928.619.386 0 .818-.303.945-.664.079-.224.081-6.426.002-6.695-.047-.162-.373-.501-3.18-3.31L12.14 2.2l-.276-.1-.276-.1-3.184.005c-1.751.002-3.268.019-3.371.036m9.166 5.95c-.824.01-.893.005-1.079-.075a1.157 1.157 0 0 1-.544-.539c-.042-.102-.056-.354-.056-1.045V5.42L13.8 6.7l1.281 1.28-.882.011m-6.959.045a1.059 1.059 0 0 0-.488.316c-.445.493-.272 1.265.348 1.554.186.086.25.093.9.093s.714-.007.9-.093a.994.994 0 0 0 .043-1.799c-.148-.079-.229-.088-.883-.095-.396-.005-.765.006-.82.024m0 4.001a1.046 1.046 0 0 0-.488.315c-.445.493-.272 1.265.348 1.554l.2.093h6.4l.2-.093a.994.994 0 0 0 .043-1.799l-.163-.087-3.22-.007c-1.771-.004-3.265.007-3.32.024m0 4c-.193.06-.347.159-.488.315-.445.493-.272 1.265.348 1.554l.2.093h4.4l.2-.093a.994.994 0 0 0 .043-1.799c-.161-.086-.186-.087-2.383-.094-1.221-.004-2.265.007-2.32.024m12.92.013c-.106.032-.567.468-1.901 1.796l-1.76 1.753-.7-.703c-.769-.775-.944-.895-1.299-.895-.261 0-.557.139-.748.351-.178.198-.293.543-.253.761.068.369.155.478 1.313 1.631.991.987 1.152 1.132 1.325 1.19.246.082.476.084.707.005.153-.052.494-.376 2.364-2.25 2.166-2.169 2.187-2.191 2.253-2.422.108-.379.004-.725-.301-1a1.005 1.005 0 0 0-1-.217"/></svg>