<svg width="24" height="24" fill="none" xmlns="http://www.w3.org/2000/svg"><path d="M11.46 1.024c-.746.075-1.023.113-1.441.197a10.944 10.944 0 0 0-5.598 3A11.065 11.065 0 0 0 1.2 11.98a11.013 11.013 0 0 0 6.04 9.837c1.708.863 3.373 1.223 5.414 1.171.985-.025 1.444-.083 2.306-.293 2.942-.719 5.254-2.532 6.624-5.195a10.865 10.865 0 0 0 1.178-3.996c.095-.939-.007-2.94-.183-3.567a.97.97 0 0 0-.503-.632l-.212-.105h-4.953c-4.16 0-4.975.009-5.088.056a1.16 1.16 0 0 0-.54.545c-.085.198-.085.225-.074 2.369.011 2.136.012 2.172.097 2.33.101.187.258.341.454.445.13.07.291.076 2.276.095l2.135.02-.248.33c-1.143 1.516-3.589 2.068-5.557 1.253-1.484-.614-2.568-1.92-2.946-3.549-.146-.63-.146-1.558 0-2.188.436-1.88 1.786-3.287 3.62-3.772.473-.125 1.462-.173 1.951-.095.814.13 1.525.466 2.228 1.054.481.401.846.481 1.248.272.086-.044.844-.774 1.736-1.672 1.714-1.724 1.677-1.678 1.677-2.118-.001-.314-.14-.554-.509-.881a10.622 10.622 0 0 0-5.539-2.577c-.51-.077-1.967-.134-2.372-.093m2.2 2.093c.94.158 1.589.366 2.44.783.526.258 1.299.722 1.3.78 0 .012-.322.343-.716.736l-.716.715-.295-.184a6.57 6.57 0 0 0-2.33-.873c-.643-.11-1.864-.088-2.475.044A7.016 7.016 0 0 0 8.08 6.38c-.624.476-1.34 1.262-1.704 1.871-.082.137-.154.255-.16.263-.007.009-1.29-.968-1.65-1.257-.007-.006.064-.125.157-.264A8.78 8.78 0 0 1 8.22 3.938c1.072-.524 2.073-.801 3.3-.913.432-.04 1.673.014 2.14.092M4.58 9.794c.44.34.816.633.835.65.021.017.004.216-.038.463-.101.591-.101 1.595 0 2.186.042.248.059.446.038.464-.242.221-1.716 1.318-1.739 1.294a2.505 2.505 0 0 1-.13-.391 9.19 9.19 0 0 1 .12-5.309c.027-.044.018-.051.914.643m16.202 1.876c.063 1.008-.043 2.187-.278 3.09-.293 1.126-.907 2.371-1.602 3.249l-.182.229-.777-.604-.777-.604.196-.237a5.48 5.48 0 0 0 1.143-2.303c.088-.363.094-.44.055-.629a1.013 1.013 0 0 0-.76-.778c-.111-.025-1.029-.041-2.39-.042l-2.21-.001V11.2h7.552l.03.47M6.335 15.685c.375.667 1.262 1.609 1.99 2.113 1.964 1.359 4.567 1.602 6.818.637l.371-.159.833.647.845.658c.025.02-.636.386-1.048.581a9.394 9.394 0 0 1-2.942.802c-.636.066-1.846.026-2.462-.081-2.489-.433-4.607-1.789-5.987-3.834-.189-.279-.196-.299-.127-.349.041-.029.407-.314.814-.634s.749-.583.76-.584c.011-.001.072.09.135.203" fill="#000" fill-rule="evenodd"/></svg>