<svg width="24" height="24" fill="#000" xmlns="http://www.w3.org/2000/svg"><path d="M11.249 2.081c-.34.089-.713.26-.974.447-.217.155-6.177 5.368-6.422 5.617a3.103 3.103 0 0 0-.791 1.514c-.093.446-.093 9.474-.001 9.92.125.606.391 1.1.825 1.535.435.434.929.7 1.535.825.438.09 12.73.091 13.159.001a3.005 3.005 0 0 0 2.36-2.36c.09-.429.089-9.483-.002-9.921a3.103 3.103 0 0 0-.791-1.514c-.244-.248-6.204-5.461-6.422-5.617a3.082 3.082 0 0 0-.99-.449c-.411-.106-1.08-.105-1.486.002m1.088 1.992c.161.058.748.552 3.284 2.769 1.698 1.484 3.128 2.756 3.178 2.827.205.293.197.113.199 4.954.002 5.086.021 4.76-.297 5.078-.278.278-.393.299-1.628.299H16v-2.642c0-2.886-.004-2.946-.235-3.507-.2-.483-.47-.84-.901-1.188a3.93 3.93 0 0 0-1.184-.589c-.32-.079-3.048-.077-3.36.002-.937.238-1.728.91-2.082 1.768-.234.569-.238.623-.238 3.514V20H6.927c-1.236 0-1.35-.021-1.629-.3-.319-.319-.301.012-.289-5.142L5.02 9.98l.12-.206c.097-.168.703-.716 3.229-2.924C11.648 3.984 11.62 4.006 12 4.004c.077 0 .229.031.337.069m1.003 9.993c.253.087.507.341.594.594.059.173.066.477.066 2.767V20h-4v-2.573c0-2.905-.008-2.821.3-3.129.277-.277.359-.291 1.683-.295.983-.003 1.193.007 1.357.063"/></svg>