<svg width="24" height="24" fill="#000" xmlns="http://www.w3.org/2000/svg"><path d="M11.12 2.041c-3.761.357-6.954 2.713-8.374 6.18A9.991 9.991 0 0 0 6.5 20.343c4.601 3.031 10.775 1.775 13.82-2.81 2.612-3.935 2.136-9.09-1.156-12.505-1.223-1.269-2.957-2.271-4.684-2.71-1.003-.254-2.392-.369-3.36-.277m2.098 2.058a8.004 8.004 0 0 1 5.022 2.907c.869 1.082 1.422 2.336 1.665 3.774.095.561.097 1.807.004 2.4-.261 1.661-.974 3.119-2.109 4.315a7.712 7.712 0 0 1-2.3 1.686c-1.082.524-2.036.763-3.22.807a7.829 7.829 0 0 1-3.751-.788 7.443 7.443 0 0 1-2.065-1.439c-1.273-1.225-2.059-2.73-2.37-4.541-.095-.551-.095-1.881 0-2.44.39-2.288 1.601-4.178 3.484-5.437.982-.657 2.245-1.133 3.342-1.259.209-.024.434-.052.5-.061.239-.034 1.409.016 1.798.076m-1.551 2.966c-.413.127-.702.587-.655 1.042.086.828 1.092 1.183 1.682.593a.972.972 0 0 0 .003-1.405c-.269-.27-.635-.351-1.03-.23m-.024 4.004a1.118 1.118 0 0 0-.343.229c-.303.303-.3.274-.3 2.702 0 2.427-.003 2.399.299 2.701a.984.984 0 0 0 1.402 0c.302-.302.299-.274.299-2.701s.003-2.399-.299-2.701a.998.998 0 0 0-1.058-.23"/></svg>