<svg width="24" height="24" fill="#000" xmlns="http://www.w3.org/2000/svg"><path d="M11.14 2.044A8.485 8.485 0 0 0 5.491 15.92c.156.187 1.536 1.596 3.066 3.132 3.037 3.046 2.977 2.994 3.423 2.994.455 0 .378.068 3.527-3.116 1.583-1.601 2.972-3.024 3.087-3.164 1.569-1.903 2.205-4.516 1.704-6.999-.854-4.232-4.85-7.166-9.158-6.723m1.44 1.975c.728.041 1.46.244 2.24.622a6.19 6.19 0 0 1 1.907 1.402 6.504 6.504 0 0 1 1.634 3.338c.076.45.085.615.067 1.239-.016.515-.046.834-.107 1.12a6.516 6.516 0 0 1-1.443 2.92c-.151.176-1.309 1.355-2.576 2.62L12 19.58l-2.303-2.3C8.43 16.015 7.25 14.809 7.074 14.6a6.436 6.436 0 0 1-1.399-2.876c-.104-.504-.144-1.592-.078-2.095A6.51 6.51 0 0 1 8.42 5.062c.618-.416 1.565-.806 2.338-.962.331-.067 1.123-.136 1.322-.114.055.005.28.02.5.033M11.5 6.204A4.308 4.308 0 0 0 9.076 7.35c-.38.358-.643.715-.876 1.19-.476.968-.584 1.968-.323 2.987.387 1.516 1.533 2.674 3.072 3.104.364.101.442.109 1.131.106.682-.003.768-.011 1.1-.11 1.455-.434 2.524-1.467 2.973-2.87a4.243 4.243 0 0 0-.515-3.642C15.42 7.791 14.897 7.25 14.56 7a4.321 4.321 0 0 0-3.06-.796m1.228 2.036c.781.242 1.402.93 1.572 1.74.144.688-.004 1.272-.489 1.924-.655.879-1.835 1.128-2.869.607-.512-.258-1.006-.883-1.163-1.473-.077-.288-.075-.866.004-1.169.212-.82.913-1.507 1.697-1.664l.3-.062c.156-.036.7.02.948.097"/></svg>