<svg width="21" height="20" fill="none" xmlns="http://www.w3.org/2000/svg"><path d="M8.678 4.217a.968.968 0 0 0-.288.166c-.094.083-.924 1.477-2.987 5.015a1599.398 1599.398 0 0 0-2.976 5.115c-.222.4-.186.771.102 1.054.281.275-.434.253 8.076.253 8.417 0 7.797.017 8.044-.22.243-.234.338-.578.237-.859-.073-.201-4.257-6.892-4.384-7.011a.74.74 0 0 0-.572-.22c-.431 0-.539.099-1.093 1.004-.233.38-.433.691-.445.691-.013 0-.641-1.053-1.397-2.34S9.571 4.477 9.509 4.419a.83.83 0 0 0-.831-.202m1.488 4.549c.713 1.216 1.197 2.076 1.182 2.101l-1.038 1.675-1.013 1.633H6.941c-1.518 0-2.356-.012-2.356-.034 0-.027 4.089-7.055 4.294-7.38.028-.045.058-.076.066-.068.008.008.557.941 1.221 2.073m5.112 3.288c.722 1.154 1.307 2.103 1.3 2.109-.006.007-1.204.008-2.661.003l-2.65-.008.92-1.436c.506-.79 1.101-1.739 1.323-2.109.221-.37.414-.669.428-.664.015.005.618.952 1.34 2.105" fill="#000" fill-rule="evenodd"/></svg>