<svg width="24" height="24" fill="#000" xmlns="http://www.w3.org/2000/svg"><path d="M3.503 1.042c-.803.136-1.614.678-2.052 1.373a3.516 3.516 0 0 0-.39 1.006c-.092.443-.092 8.715 0 9.158.125.606.391 1.1.825 1.535.435.434.929.7 1.535.825.439.091 16.729.091 17.159.001a3.005 3.005 0 0 0 2.36-2.36c.089-.426.089-8.723-.001-9.159a2.956 2.956 0 0 0-1.643-2.109c-.662-.319.236-.29-9.176-.297-4.631-.003-8.509.009-8.617.027M20.34 3.066c.115.039.263.135.361.233.317.317.299.038.299 4.701 0 4.663.018 4.384-.299 4.701-.325.325.443.299-8.701.299s-8.376.026-8.701-.299C2.982 12.384 3 12.663 3 8c0-4.664-.018-4.384.3-4.702.317-.317-.442-.291 8.683-.295 7.498-.003 8.179.002 8.357.063m-8.894 1.992c-.971.185-1.834.88-2.211 1.781a3.008 3.008 0 0 0 1.098 3.65 3.01 3.01 0 0 0 3.331.002c1.492-1.014 1.779-3.086.614-4.434a3.363 3.363 0 0 0-1.522-.96c-.317-.086-.961-.106-1.31-.039M5.643 7.069c-.399.141-.676.597-.631 1.038.086.828 1.099 1.184 1.689.594.753-.753-.048-1.989-1.058-1.632m6.697-.003c.375.128.66.54.66.954 0 .507-.482.98-1 .98-.412 0-.824-.3-.937-.684-.079-.264-.079-.368 0-.632.154-.521.736-.802 1.277-.618m5.303.003c-.399.141-.676.597-.631 1.038.086.828 1.099 1.184 1.689.594.753-.753-.048-1.989-1.058-1.632m-16 10C1.291 17.193 1 17.614 1 18c0 .396.291.808.66.934.179.061 1.001.066 10.34.066 11.385 0 10.374.028 10.701-.299a.984.984 0 0 0 0-1.402c-.327-.327.687-.299-10.718-.296-9.098.003-10.182.01-10.34.066m0 4C1.291 21.193 1 21.614 1 22c0 .396.291.808.66.934.179.061 1.001.066 10.34.066 11.385 0 10.374.028 10.701-.299a.984.984 0 0 0 0-1.402c-.327-.327.687-.299-10.718-.296-9.098.003-10.182.01-10.34.066"/></svg>