<svg width="24" height="24" fill="#000" xmlns="http://www.w3.org/2000/svg"><path d="M4.503 2.042c-.804.137-1.614.678-2.052 1.373a3.516 3.516 0 0 0-.39 1.006c-.092.445-.092 10.713 0 11.158.125.606.391 1.1.825 1.535.435.434.929.7 1.535.825.437.09 10.731.091 11.159.001a3.005 3.005 0 0 0 2.36-2.36c.09-.428.089-10.722-.001-11.159a2.956 2.956 0 0 0-1.643-2.109c-.653-.314-.125-.289-6.176-.297-2.981-.003-5.509.008-5.617.027M8 7.575c0 3.887-.008 3.75.222 4.051.144.189.416.335.671.362.382.039.528-.04 1.36-.732l.747-.622.747.622c.832.692.978.771 1.36.732.255-.027.527-.173.671-.362.23-.301.222-.164.222-4.051V4h.573c.686 0 .881.052 1.128.299.32.32.299-.082.299 5.701 0 5.783.021 5.381-.299 5.701-.32.32.082.299-5.701.299-5.783 0-5.381.021-5.701-.299C3.979 15.381 4 15.783 4 10c0-5.784-.021-5.381.3-5.702.288-.288.314-.291 2.11-.295L8 4v3.575m4-1.15c0 2.709.031 2.461-.271 2.206-.458-.386-1-.386-1.458 0-.302.255-.271.503-.271-2.206V4h2v2.425m8.659-.361a.996.996 0 0 0-.545.486l-.094.19-.02 5.4-.02 5.4-.11.32c-.383 1.116-1.196 1.853-2.294 2.08-.252.052-1.013.06-5.507.06-5.86 0-5.45-.021-5.77.299a.984.984 0 0 0 .001 1.403c.323.323-.115.302 6.004.288l5.436-.012.412-.109c.991-.262 1.77-.709 2.432-1.396.648-.673 1.034-1.37 1.285-2.321l.109-.412.012-5.436c.014-6.119.035-5.681-.288-6.004a.999.999 0 0 0-1.043-.236"/></svg>