<svg width="24" height="24" fill="#000" xmlns="http://www.w3.org/2000/svg"><path d="M4.503 2.042c-.656.112-1.336.5-1.781 1.015a2.613 2.613 0 0 0-.487.794C1.988 4.452 2 4.02 2 12c0 7.991-.013 7.546.238 8.156.154.372.344.653.648.958.435.434.929.7 1.535.825.433.089 6.735.09 7.159.001a3.005 3.005 0 0 0 2.36-2.36c.046-.22.059-.631.059-1.93L14 16h.573c.686 0 .881.052 1.128.299.283.283.299.378.299 1.77 0 1.335.027 1.575.238 2.087.154.372.344.653.648.958 1.528 1.527 4.076 1.001 4.898-1.012.225-.552.22-.399.206-5.922-.014-5.019-.015-5.084-.099-5.42-.184-.742-.461-1.349-.865-1.899-.325-.442-3.413-3.54-3.667-3.678-.357-.194-.683-.177-1.046.053a.925.925 0 0 0-.422.724c-.037.408.036.535.698 1.206l.579.585-.47 1.415-.469 1.414-.02.481c-.016.402-.005.536.065.815.094.372.227.684.418.984.071.11.843.929 1.717 1.82l1.589 1.62.001 2.471c.001 2.008-.009 2.496-.054 2.603-.146.351-.553.625-.925.625s-.779-.274-.925-.625c-.042-.1-.055-.388-.055-1.223-.001-.6-.019-1.251-.041-1.447-.144-1.253-.967-2.237-2.165-2.588-.24-.07-.436-.089-1.064-.105l-.77-.02V9.354c0-5.074.007-4.916-.235-5.503a2.934 2.934 0 0 0-1.469-1.539c-.638-.307-.364-.288-4.176-.296-1.881-.005-3.509.007-3.617.026m6.837 2.024c.253.087.507.341.594.594.059.173.066.477.066 2.767V10H4V7.427c0-2.905-.008-2.821.3-3.129.305-.305.137-.291 3.683-.295 2.844-.003 3.182.004 3.357.063m8.216 4.242c.199.335.342.725.401 1.092.023.143.043.656.043 1.14v.879l-.82-.819c-.54-.539-.848-.878-.901-.991-.149-.317-.12-.546.183-1.454l.27-.81.326.338c.18.186.404.468.498.625M12 15.573c0 4.022.015 3.814-.299 4.128-.311.312-.157.299-3.701.299s-3.39.013-3.701-.299C3.985 19.387 4 19.595 4 15.573V12h8v3.573"/></svg>