<svg width="24" height="24" fill="#000" xmlns="http://www.w3.org/2000/svg"><path d="M11.34 5.024c-1.359.136-2.195.334-3.208.758C3.427 7.753.95 13.005 2.426 17.877c.253.835.769 1.978 1.024 2.268.264.301.646.423 1.002.319.473-.137.748-.493.748-.967 0-.226-.023-.294-.261-.763a11.893 11.893 0 0 1-.384-.834 7.982 7.982 0 0 1 1.7-8.452 7.996 7.996 0 0 1 10.153-1.112c2.326 1.538 3.704 4.229 3.577 6.984-.058 1.25-.332 2.269-.917 3.414-.277.543-.321.767-.212 1.094.077.231.328.496.564.596.222.093.575.085.79-.019.253-.122.396-.293.644-.765.538-1.024.859-2.035 1.073-3.38.068-.425.068-2.095 0-2.52-.276-1.734-.746-2.976-1.626-4.3a9.998 9.998 0 0 0-7.061-4.36c-.36-.046-1.631-.083-1.9-.056m3.892 5.494c-.195.062-.361.205-1.158.993l-.786.778-.234-.088a2.863 2.863 0 0 0-1.579-.142 2.992 2.992 0 0 0-2.412 3.533c.121.587.396 1.096.822 1.523a2.908 2.908 0 0 0 1.956.873c2.084.126 3.664-1.93 3.002-3.907l-.126-.375.858-.863c.814-.819.862-.875.924-1.092.085-.293.052-.523-.113-.799a.887.887 0 0 0-.781-.46 1.466 1.466 0 0 0-.373.026m-2.902 3.539a.998.998 0 0 1 .372 1.643.984.984 0 0 1-1.403.001.984.984 0 0 1 .001-1.403 1.008 1.008 0 0 1 1.03-.241"/></svg>