<svg width="24" height="24" fill="#000" xmlns="http://www.w3.org/2000/svg"><path d="M10.79 2.054c-.194.073-.419.245-.505.388-.038.062-.714 1.562-1.503 3.333L7.348 8.994l-1.444.017c-1.138.013-1.486.029-1.644.077-.952.288-1.675.916-2.022 1.756-.242.587-.238.512-.238 4.656s-.004 4.069.238 4.656c.154.372.344.653.648.958.305.304.586.494.96.648.612.253.225.241 7.654.228 6.376-.011 6.774-.016 7-.084 1.029-.309 1.804-1.066 2.095-2.047.105-.353 1.364-7.299 1.394-7.688.087-1.135-.6-2.319-1.642-2.831-.669-.328-.533-.314-3.373-.338l-2.525-.022.299-.76c.346-.879.441-1.216.491-1.732.196-2.042-1.225-3.957-3.259-4.392-.419-.09-1.008-.11-1.19-.042m1.326 2.204c.11.056.319.212.463.347.487.456.731 1.155.63 1.805-.026.167-.175.638-.35 1.11a18.61 18.61 0 0 0-.362 1.038c-.111.426-.052.889.173 1.355.142.293.566.72.852.859.469.227.481.228 3.159.228 2.704 0 2.672-.003 2.968.241.197.163.351.483.351.731s-1.265 7.235-1.345 7.426c-.084.201-.282.396-.515.507l-.2.094-4.47.001H9v-9.79l1.324-2.975a751.836 751.836 0 0 0 1.358-3.064c.04-.102.076-.094.434.087M7 15.5V20H5.927c-1.235 0-1.35-.021-1.628-.299C3.985 19.387 4 19.604 4 15.5c0-4.105-.016-3.887.3-4.202.274-.274.367-.291 1.61-.295L7 11v4.5"/></svg>