<svg width="24" height="24" fill="#000" xmlns="http://www.w3.org/2000/svg"><path d="M5.86 2.028a3.026 3.026 0 0 0-2.455 2.113c-.046.154-.375 1.881-.732 3.839-.589 3.232-.649 3.602-.651 4.02 0 .266.022.553.055.68.274 1.085 1.06 1.899 2.149 2.226.209.062.51.072 2.78.092l2.545.022-.299.76c-.164.418-.334.895-.377 1.06a4.142 4.142 0 0 0 .609 3.382c.279.404.864.953 1.273 1.193.886.522 2.128.737 2.613.453.1-.059.225-.158.278-.221.052-.062.75-1.584 1.551-3.38L16.654 15l1.323-.001c1.011 0 1.389-.014 1.603-.059a3.005 3.005 0 0 0 2.36-2.36c.089-.425.089-7.724-.001-8.159a2.956 2.956 0 0 0-1.643-2.109c-.658-.317.039-.289-7.536-.295-3.729-.003-6.834.002-6.9.011M15 8.895v4.895l-1.358 3.055c-1.129 2.537-1.371 3.053-1.43 3.041-.145-.027-.547-.267-.744-.444-.453-.407-.686-.955-.683-1.602.003-.413-.008-.377.516-1.8.266-.725.312-1.052.204-1.472-.178-.695-.611-1.184-1.285-1.452l-.24-.096L7.34 13l-2.64-.02-.189-.111A1.004 1.004 0 0 1 4 12.016c0-.242 1.267-7.228 1.345-7.415.104-.248.369-.477.655-.564.055-.016 2.103-.032 4.55-.034L15 4v4.895m4.34-4.829c.115.039.263.135.361.233.314.314.299.097.299 4.201 0 4.104.015 3.887-.299 4.201-.278.278-.393.299-1.628.299H17V4h1.073c.894 0 1.105.011 1.267.066"/></svg>