<svg width="24" height="24" fill="#000" xmlns="http://www.w3.org/2000/svg"><path d="M11.34 2.023c-1.578.158-2.624.45-3.869 1.083A9.997 9.997 0 0 0 2.74 8.279a9.686 9.686 0 0 0-.711 3.741 9.803 9.803 0 0 0 1.157 4.66c1.018 1.929 2.758 3.559 4.715 4.416 1.372.601 2.649.873 4.099.873a9.75 9.75 0 0 0 3.868-.774 10.085 10.085 0 0 0 4.475-3.715 10.042 10.042 0 0 0 1.392-7.676 9.978 9.978 0 0 0-2.702-4.882c-1.538-1.534-3.499-2.507-5.693-2.825-.394-.057-1.689-.105-2-.074m1.878 2.076c3.44.532 6.166 3.258 6.682 6.683.187 1.244.069 2.609-.325 3.752-.145.421-.607 1.426-.656 1.426-.015 0-.114-.13-.219-.29a7.761 7.761 0 0 0-1.125-1.351c-.684-.663-1.268-1.075-2.087-1.472l-.477-.231.194-.258a3.977 3.977 0 0 0 .783-2.595c-.102-1.825-1.399-3.325-3.207-3.707-.366-.078-1.196-.078-1.562 0-1.808.382-3.105 1.882-3.207 3.707-.051.93.23 1.861.783 2.595l.194.258-.477.231c-.809.392-1.4.808-2.067 1.452a7.569 7.569 0 0 0-1.124 1.335c-.118.179-.226.326-.241.326-.048 0-.511-1.011-.659-1.438-.391-1.134-.508-2.497-.321-3.74a7.994 7.994 0 0 1 6.82-6.698c.209-.024.434-.052.5-.061.239-.034 1.409.016 1.798.076m-.835 3.944c1.045.191 1.764 1.238 1.579 2.302a2.041 2.041 0 0 1-1.554 1.611c-1.37.285-2.61-.919-2.37-2.301a2.005 2.005 0 0 1 1.925-1.65c.1-.003.289.015.42.038m.737 6.097a6.03 6.03 0 0 1 4.224 3.189l.216.429-.33.283c-1.122.96-2.415 1.572-3.91 1.848-.377.069-.614.085-1.32.085-.706 0-.943-.016-1.32-.085-1.494-.276-2.788-.888-3.908-1.847l-.329-.281.091-.191c.351-.74.693-1.233 1.226-1.768.957-.962 2.198-1.56 3.6-1.737.302-.038 1.43.01 1.76.075"/></svg>