<svg width="24" height="24" fill="#000" xmlns="http://www.w3.org/2000/svg"><path d="M11.3 1.024c-.772.078-1.037.116-1.56.221-2.76.557-5.287 2.264-6.891 4.657C1.938 7.26 1.35 8.815 1.093 10.54c-.108.729-.099 2.286.019 3.04.294 1.884.98 3.519 2.122 5.06.451.608 1.518 1.675 2.126 2.126C7.338 22.233 9.618 23 12 23a11.05 11.05 0 0 0 8.397-3.9c2.784-3.27 3.384-7.93 1.526-11.84-.561-1.179-1.199-2.067-2.199-3.06-2.037-2.024-4.625-3.123-7.484-3.178a15.39 15.39 0 0 0-.94.002m2.02 2.077c.6.09 1.412.307 1.953.522 3.041 1.204 5.127 3.836 5.633 7.103.097.626.097 1.92 0 2.554-.586 3.84-3.441 6.826-7.226 7.557a8.911 8.911 0 0 1-5.62-.755c-2.688-1.311-4.5-3.795-4.966-6.808-.097-.625-.097-1.92 0-2.554.453-2.972 2.269-5.474 4.918-6.776a9.052 9.052 0 0 1 3.308-.919c.356-.033 1.588.014 2 .076m-1.677 1.968a1.118 1.118 0 0 0-.343.229c-.248.248-.3.443-.3 1.124v.568l-.273.027c-.507.049-.929.2-1.371.489a2.973 2.973 0 0 0-1.118 3.65c.154.372.344.653.648.958.305.304.586.494.958.648.512.211.752.238 2.087.238 1.392 0 1.487.016 1.77.299a.984.984 0 0 1 0 1.402c-.302.302-.274.299-2.701.299s-2.399-.003-2.701.299a.984.984 0 0 0 0 1.402c.278.278.393.299 1.628.299H11v.573c0 .686.052.881.299 1.128a.984.984 0 0 0 1.402 0c.247-.247.299-.442.299-1.128V17l.15-.001c.211-.001.67-.102.93-.206 1.364-.542 2.149-1.966 1.859-3.372a2.956 2.956 0 0 0-1.643-2.109c-.573-.276-.606-.281-2.156-.308-1.362-.023-1.405-.027-1.59-.118-.601-.296-.73-1.108-.251-1.587C10.601 8.997 10.573 9 13 9s2.399.003 2.701-.299a.984.984 0 0 0 0-1.402C15.423 7.021 15.308 7 14.073 7H13v-.573c0-.686-.052-.881-.299-1.128a.998.998 0 0 0-1.058-.23"/></svg>