<svg width="32" height="32" fill="none" xmlns="http://www.w3.org/2000/svg"><path d="M14.943 7.046c-3.044.206-5.962 1.359-8.495 3.357-.662.521-2.176 2.032-2.662 2.654-.816 1.048-1.586 2.232-1.74 2.681-.224.648.411 1.365 1.105 1.248.307-.052.53-.227.778-.613l.572-.888c.543-.843 1.149-1.575 2.026-2.447 2.65-2.635 5.921-4.025 9.473-4.025 2.527 0 4.987.73 7.139 2.118.828.533 1.514 1.094 2.334 1.909.861.854 1.449 1.56 2.02 2.426l.354.536-.384.571c-2.214 3.293-5.471 5.525-9.048 6.198-.86.162-1.444.215-2.377.215-1.503.001-2.758-.197-4.106-.646-2.012-.672-3.705-1.722-5.372-3.332-.722-.697-.903-.8-1.314-.754a.983.983 0 0 0-.79 1.361c.093.225.779.94 1.491 1.554 2.376 2.051 5.114 3.294 8.186 3.718.81.112 2.751.127 3.547.027a15.443 15.443 0 0 0 6.72-2.487c.966-.645 1.496-1.074 2.34-1.893 1.019-.991 1.768-1.893 2.502-3.016.835-1.279.893-1.507.545-2.142-1.174-2.144-3.271-4.412-5.351-5.784-2.335-1.542-4.761-2.366-7.503-2.55-.889-.06-1.047-.059-1.99.004m.044 4.074c-1.979.442-3.472 1.953-3.869 3.915-.123.607-.085 1.728.078 2.289a5.06 5.06 0 0 0 3.48 3.48c.561.163 1.682.201 2.289.078 1.022-.207 1.759-.609 2.533-1.384.775-.774 1.177-1.511 1.384-2.533.123-.607.085-1.728-.078-2.289a5.066 5.066 0 0 0-3.48-3.481c-.514-.15-1.816-.192-2.337-.075m1.81 1.983c.504.138.914.383 1.316.784.603.604.886 1.278.886 2.113s-.283 1.509-.886 2.113c-.604.603-1.278.886-2.113.886s-1.509-.283-2.113-.886c-.603-.604-.886-1.278-.886-2.113s.283-1.509.886-2.113c.797-.796 1.842-1.078 2.91-.784" fill="#000" fill-rule="evenodd"/></svg>